<svg xmlns="http://www.w3.org/2000/svg" viewBox="0 -0.5 24 24" shape-rendering="crispEdges">
<metadata>Made with Pixels to Svg https://codepen.io/shshaw/pen/XbxvNj</metadata>
<path stroke="#25562e" d="M3 2h12M3 3h13M3 4h3M8 4h1M10 4h1M12 4h1M14 4h2M3 5h5M3 6h4M3 7h4M3 8h4M3 9h4M3 10h4M3 11h4M3 12h4M3 13h4M3 14h4M3 15h4" />
<path stroke="#19332d" d="M2 3h1M2 4h1M2 5h1M2 6h1M2 7h1M2 8h1M2 9h1M2 10h1M2 11h1M2 12h1M2 13h1M2 14h1M2 15h1M2 16h2M2 17h1M3 18h4" />
<path stroke="#090a14" d="M6 4h2M9 4h1M11 4h1M13 4h1M9 7h1M11 7h1M13 7h2M16 7h2M19 7h1M11 14h2M14 14h1M16 14h2" />
<path stroke="#a53030" d="M8 5h13M8 6h14M8 7h1M10 7h1M12 7h1M15 7h1M18 7h1M20 7h2M8 8h14M8 9h14M8 10h14M8 11h14M8 12h14M8 13h14M8 14h3M13 14h1M15 14h1M18 14h4M8 15h14M8 16h14M8 17h14M9 18h13M15 21h2M19 21h1M21 21h1" />
<path stroke="#752438" d="M7 6h1M7 7h1M7 8h1M7 9h1M7 10h1M7 11h1M7 12h1M7 13h1M7 14h1M7 15h1M7 16h1M7 17h1M7 18h2M7 19h2M7 20h1M8 21h7M17 21h2M20 21h1" />
<path stroke="#a8b5b2" d="M4 16h2M3 17h1M9 19h5M18 19h2M13 20h2M16 20h2M19 20h2" />
<path stroke="#c7cfcc" d="M6 16h1M4 17h3M14 19h4M20 19h1M8 20h5M15 20h1M18 20h1" />
</svg>