<svg xmlns="http://www.w3.org/2000/svg" viewBox="0 -0.5 24 24" shape-rendering="crispEdges">
<metadata>Made with Pixels to Svg https://codepen.io/shshaw/pen/XbxvNj</metadata>
<path stroke="#3c5e8b" d="M3 2h1M2 3h1M2 4h1M2 5h1M21 5h1M2 6h1M21 6h1M2 7h1M21 7h1M2 8h1M21 8h1M2 9h1M21 9h1M2 10h1M21 10h1M2 11h1M21 11h1M2 12h1M21 12h1M2 13h1M21 13h1M2 14h1M21 14h1M2 15h1M21 15h1M2 16h1M21 16h1M2 17h1M21 17h1M2 18h1M21 18h1M2 19h1M21 19h1M2 20h1M21 20h1M3 21h18" />
<path stroke="#4f8fba" d="M4 2h1M18 2h1M3 3h2M18 3h2M3 4h2M18 4h3M3 5h2M18 5h3M3 6h2M18 6h3M3 7h2M18 7h3M3 8h3M17 8h4M3 9h18M3 10h18M3 11h3M18 11h3M3 12h2M19 12h2M3 13h2M19 13h2M3 14h2M19 14h2M3 15h2M19 15h2M3 16h2M19 16h2M3 17h2M19 17h2M3 18h2M19 18h2M3 19h3M18 19h3M3 20h18" />
<path stroke="#253a5e" d="M5 2h4M13 2h3M17 2h1M5 3h4M13 3h3M17 3h1M5 4h4M13 4h3M17 4h1M5 5h4M13 5h3M17 5h1M5 6h4M14 6h1M17 6h1M5 7h4M17 7h1M6 8h4M16 8h1" />
<path stroke="#c7cfcc" d="M9 2h4M16 2h1M9 3h2M12 4h1M11 5h2M10 6h2M9 7h2M5 14h14M5 15h2M9 15h1M11 15h1M16 15h1M18 15h1M5 16h14M5 17h1M7 17h1M12 17h2M18 17h1M5 18h14M6 19h12" />
<path stroke="#a8b5b2" d="M11 3h2M16 3h1M9 4h3M16 4h1M9 5h2M16 5h1M9 6h1M12 6h1M16 6h1M11 7h6M10 8h6" />
<path stroke="#819796" d="M13 6h1M15 6h1" />
<path stroke="#a53030" d="M6 11h12M5 12h12" />
<path stroke="#752438" d="M17 12h2M5 13h14" />
<path stroke="#394a50" d="M7 15h2M10 15h1M12 15h4M17 15h1M6 17h1M8 17h4M14 17h4" />
</svg>